<?xml version="1.0" encoding="UTF-8"?>
<svg width="300" height="300" viewBox="0 0 300 300" fill="none" xmlns="http://www.w3.org/2000/svg">
    <defs>
        <clipPath id="circle">
            <circle cx="150" cy="150" r="150" />
        </clipPath>
    </defs>
    <g clip-path="url(#circle)">
        <g transform="scale(1.2) translate(-25 -25)">
            <rect width="300" height="300" fill="#C7C7C7"/>
            <path d="M188.552 196.28C181.725 196.28 176.563 194.36 173.064 190.52C169.565 186.595 167.816 181.005 167.816 173.752V168.632H181.128V174.776C181.128 180.579 183.56 183.48 188.424 183.48C190.813 183.48 192.605 182.797 193.8 181.432C195.08 179.981 195.72 177.677 195.72 174.52C195.72 170.765 194.867 167.48 193.16 164.664C191.453 161.763 188.296 158.307 183.688 154.296C177.885 149.176 173.832 144.568 171.528 140.472C169.224 136.291 168.072 131.597 168.072 126.392C168.072 119.309 169.864 113.848 173.448 110.008C177.032 106.083 182.237 104.12 189.064 104.12C195.805 104.12 200.883 106.083 204.296 110.008C207.795 113.848 209.544 119.395 209.544 126.648V130.36H196.232V125.752C196.232 122.68 195.635 120.461 194.44 119.096C193.245 117.645 191.496 116.92 189.192 116.92C184.499 116.92 182.152 119.779 182.152 125.496C182.152 128.739 183.005 131.768 184.712 134.584C186.504 137.4 189.704 140.813 194.312 144.824C200.2 149.944 204.253 154.595 206.472 158.776C208.691 162.957 209.8 167.864 209.8 173.496C209.8 180.835 207.965 186.467 204.296 190.392C200.712 194.317 195.464 196.28 188.552 196.28Z" fill="black"/>
            <rect width="79" height="131" transform="matrix(-1 0 0 1 151 84)" fill="black"/>
            <path d="M102.128 105.4H121.2L135.792 195H121.712L119.152 177.208V177.464H103.152L100.592 195H87.536L102.128 105.4ZM117.488 165.304L111.216 121.016H110.96L104.816 165.304H117.488Z" fill="#C7C7C7"/>
            <rect x="167" y="207" width="46" height="8" fill="black"/>
            <rect x="167" y="84" width="46" height="8" fill="black"/>
        </g>
    </g>
</svg>
