<svg width="609" height="137" viewBox="0 0 609 137" fill="none" xmlns="http://www.w3.org/2000/svg">
<path d="M354.552 116.28C347.725 116.28 342.563 114.36 339.064 110.52C335.565 106.595 333.816 101.005 333.816 93.752V88.632H347.128V94.776C347.128 100.579 349.56 103.48 354.424 103.48C356.813 103.48 358.605 102.797 359.8 101.432C361.08 99.9813 361.72 97.6773 361.72 94.52C361.72 90.7653 360.867 87.48 359.16 84.664C357.453 81.7627 354.296 78.3067 349.688 74.296C343.885 69.176 339.832 64.568 337.528 60.472C335.224 56.2907 334.072 51.5973 334.072 46.392C334.072 39.3093 335.864 33.848 339.448 30.008C343.032 26.0827 348.237 24.12 355.064 24.12C361.805 24.12 366.883 26.0827 370.296 30.008C373.795 33.848 375.544 39.3947 375.544 46.648V50.36H362.232V45.752C362.232 42.68 361.635 40.4613 360.44 39.096C359.245 37.6453 357.496 36.92 355.192 36.92C350.499 36.92 348.152 39.7787 348.152 45.496C348.152 48.7387 349.005 51.768 350.712 54.584C352.504 57.4 355.704 60.8133 360.312 64.824C366.2 69.944 370.253 74.5947 372.472 78.776C374.691 82.9573 375.8 87.864 375.8 93.496C375.8 100.835 373.965 106.467 370.296 110.392C366.712 114.317 361.464 116.28 354.552 116.28ZM394.881 38.2H380.161V25.4H423.681V38.2H408.961V115H394.881V38.2ZM450.978 116.28C444.151 116.28 438.946 114.36 435.362 110.52C431.778 106.595 429.986 101.005 429.986 93.752V25.4H444.066V94.776C444.066 97.848 444.663 100.067 445.858 101.432C447.138 102.797 448.93 103.48 451.234 103.48C453.538 103.48 455.287 102.797 456.482 101.432C457.762 100.067 458.402 97.848 458.402 94.776V25.4H471.97V93.752C471.97 101.005 470.178 106.595 466.594 110.52C463.01 114.36 457.805 116.28 450.978 116.28ZM481.998 25.4H503.502C510.499 25.4 515.747 27.2773 519.246 31.032C522.745 34.7867 524.494 40.2907 524.494 47.544V92.856C524.494 100.109 522.745 105.613 519.246 109.368C515.747 113.123 510.499 115 503.502 115H481.998V25.4ZM503.246 102.2C505.55 102.2 507.299 101.517 508.494 100.152C509.774 98.7867 510.414 96.568 510.414 93.496V46.904C510.414 43.832 509.774 41.6133 508.494 40.248C507.299 38.8827 505.55 38.2 503.246 38.2H496.078V102.2H503.246ZM533.998 25.4H548.078V115H533.998V25.4ZM578.975 116.28C572.063 116.28 566.772 114.317 563.103 110.392C559.434 106.467 557.599 100.92 557.599 93.752V46.648C557.599 39.48 559.434 33.9333 563.103 30.008C566.772 26.0827 572.063 24.12 578.975 24.12C585.887 24.12 591.178 26.0827 594.847 30.008C598.516 33.9333 600.351 39.48 600.351 46.648V93.752C600.351 100.92 598.516 106.467 594.847 110.392C591.178 114.317 585.887 116.28 578.975 116.28ZM578.975 103.48C583.839 103.48 586.271 100.536 586.271 94.648V45.752C586.271 39.864 583.839 36.92 578.975 36.92C574.111 36.92 571.679 39.864 571.679 45.752V94.648C571.679 100.536 574.111 103.48 578.975 103.48Z" fill="black"/>
<rect width="303" height="131" transform="matrix(-1 0 0 1 303 4)" fill="black"/>
<path d="M30.128 25.4H49.2L63.792 115H49.712L47.152 97.208V97.464H31.152L28.592 115H15.536L30.128 25.4ZM45.488 85.304L39.216 41.016H38.96L32.816 85.304H45.488ZM70.623 25.4H91.487C98.7403 25.4 104.031 27.1067 107.359 30.52C110.687 33.848 112.351 39.0107 112.351 46.008V51.512C112.351 60.8133 109.279 66.7013 103.135 69.176V69.432C106.548 70.456 108.938 72.5467 110.303 75.704C111.754 78.8613 112.479 83.0853 112.479 88.376V104.12C112.479 106.68 112.564 108.771 112.735 110.392C112.906 111.928 113.332 113.464 114.015 115H99.679C99.167 113.549 98.8257 112.184 98.655 110.904C98.4843 109.624 98.399 107.32 98.399 103.992V87.608C98.399 83.512 97.7163 80.6533 96.351 79.032C95.071 77.4107 92.8097 76.6 89.567 76.6H84.703V115H70.623V25.4ZM89.823 63.8C92.639 63.8 94.7297 63.0747 96.095 61.624C97.5457 60.1733 98.271 57.7413 98.271 54.328V47.416C98.271 44.1733 97.6737 41.8267 96.479 40.376C95.3697 38.9253 93.5777 38.2 91.103 38.2H84.703V63.8H89.823ZM122.248 25.4H159.496V38.2H136.328V63.16H154.504V75.96H136.328V115H122.248V25.4ZM166.248 25.4H180.328V115H166.248V25.4ZM201.753 25.4H220.825L235.417 115H221.337L218.777 97.208V97.464H202.777L200.217 115H187.161L201.753 25.4ZM217.113 85.304L210.841 41.016H210.585L204.441 85.304H217.113ZM253.753 25.4H272.825L287.417 115H273.337L270.777 97.208V97.464H254.777L252.217 115H239.161L253.753 25.4ZM269.113 85.304L262.841 41.016H262.585L256.441 85.304H269.113Z" fill="#C7C7C7"/>
<rect x="331" y="4" width="270" height="8" fill="black"/>
<rect x="331" y="127" width="270" height="8" fill="black"/>
</svg>
